<svg id="Layer_1" xmlns="http://www.w3.org/2000/svg" xmlns:xlink="http://www.w3.org/1999/xlink" height="200" width="330" viewBox="160 90 200 330"><linearGradient id="lg1"><stop offset="0" stop-color="#e4f2ff"/><stop offset="1" stop-color="#b2cbff"/></linearGradient><linearGradient id="SVGID_1_" gradientTransform="matrix(.978 .208 -.208 .978 64.822 -109.577)" gradientUnits="userSpaceOnUse" x1="380.101" x2="630.896" xlink:href="#lg1" y1="272.998" y2="523.794"/><linearGradient id="lg2"><stop offset="0" stop-color="#fff" stop-opacity="0"/><stop offset="1" stop-color="#fff"/></linearGradient><linearGradient id="SVGID_2_" gradientTransform="matrix(.978 .208 -.208 .978 64.822 -109.577)" gradientUnits="userSpaceOnUse" x1="407.053" x2="238.793" xlink:href="#lg2" y1="299.619" y2="179.16"/><linearGradient id="lg3"><stop offset="0" stop-color="#3f3ced" stop-opacity="0"/><stop offset=".2796" stop-color="#3c3de4" stop-opacity=".28"/><stop offset=".7305" stop-color="#3541cc" stop-opacity=".731"/><stop offset="1" stop-color="#2f43bb"/></linearGradient><linearGradient id="SVGID_3_" gradientTransform="matrix(.978 .208 -.208 .978 64.822 -109.577)" gradientUnits="userSpaceOnUse" x1="459.541" x2="806.037" xlink:href="#lg3" y1="303.058" y2="141.501"/><linearGradient id="SVGID_4_" gradientTransform="matrix(.978 .208 -.208 .978 64.822 -109.577)" gradientUnits="userSpaceOnUse" x1="378.619" x2="433.812" y1="277.021" y2="318.769"><stop offset="0" stop-color="#ff819c"/><stop offset=".2701" stop-color="#ff7e9b"/><stop offset=".4835" stop-color="#fe7496"/><stop offset=".6776" stop-color="#fc638e"/><stop offset=".8591" stop-color="#fa4c84"/><stop offset="1" stop-color="#f83479"/></linearGradient><linearGradient id="lg4"><stop offset="0" stop-color="#ffd9a9" stop-opacity="0"/><stop offset="1" stop-color="#fcdbcb"/></linearGradient><linearGradient id="SVGID_5_" gradientTransform="matrix(.978 .208 -.208 .978 64.822 -109.577)" gradientUnits="userSpaceOnUse" x1="397.535" x2="348.498" xlink:href="#lg4" y1="283.485" y2="182.917"/><linearGradient id="SVGID_6_" gradientUnits="userSpaceOnUse" x1="437.058" x2="291.655" xlink:href="#lg3" y1="275.027" y2="236.342"/><linearGradient id="SVGID_7_" gradientTransform="matrix(.995 .105 -.105 .995 28.659 -37.015)" gradientUnits="userSpaceOnUse" x1="278.663" x2="529.452" xlink:href="#lg1" y1="228.403" y2="479.192"/><linearGradient id="SVGID_8_" gradientTransform="matrix(.995 .105 -.105 .995 28.659 -37.015)" gradientUnits="userSpaceOnUse" x1="305.615" x2="137.36" xlink:href="#lg2" y1="255.024" y2="134.569"/><linearGradient id="SVGID_9_" gradientTransform="matrix(.995 .105 -.105 .995 28.659 -37.015)" gradientUnits="userSpaceOnUse" x1="358.103" x2="704.596" xlink:href="#lg3" y1="258.463" y2="96.909"/><linearGradient id="lg5"><stop offset="0" stop-color="#9b62cd"/><stop offset=".3003" stop-color="#985dcb"/><stop offset=".6716" stop-color="#8f4ec7"/><stop offset="1" stop-color="#833ac1"/></linearGradient><linearGradient id="SVGID_10_" gradientTransform="matrix(.995 .105 -.105 .995 28.659 -37.015)" gradientUnits="userSpaceOnUse" x1="280.391" x2="321.279" xlink:href="#lg5" y1="236.355" y2="277.242"/><linearGradient id="lg6"><stop offset="0" stop-color="#9b62cd" stop-opacity="0"/><stop offset="1" stop-color="#ff75c8"/></linearGradient><linearGradient id="SVGID_11_" gradientTransform="matrix(.995 .105 -.105 .995 28.659 -37.015)" gradientUnits="userSpaceOnUse" x1="304.193" x2="240.008" xlink:href="#lg6" y1="265.406" y2="159.637"/><linearGradient id="SVGID_12_" gradientUnits="userSpaceOnUse" x1="340.373" x2="210.214" xlink:href="#lg3" y1="243.293" y2="243.814"/><linearGradient id="SVGID_13_" gradientTransform="matrix(.995 -.105 .105 .995 -26.069 20.055)" gradientUnits="userSpaceOnUse" x1="189.721" x2="440.512" xlink:href="#lg1" y1="224.671" y2="475.463"/><linearGradient id="SVGID_14_" gradientTransform="matrix(.995 -.105 .105 .995 -26.069 20.055)" gradientUnits="userSpaceOnUse" x1="216.673" x2="48.414" xlink:href="#lg2" y1="251.292" y2="130.834"/><radialGradient id="SVGID_15_" cx="174.228" cy="194.692" gradientTransform="matrix(.954 -.1 .1 .954 -14.549 29.402)" gradientUnits="userSpaceOnUse" r="109.949"><stop offset="0" stop-color="#ff819c"/><stop offset=".474" stop-color="#ff7f9b"/><stop offset=".6447" stop-color="#fe7898"/><stop offset=".7665" stop-color="#fd6d93"/><stop offset=".8649" stop-color="#fc5c8b"/><stop offset=".9481" stop-color="#fa4681"/><stop offset="1" stop-color="#f83479"/></radialGradient><linearGradient id="SVGID_16_" gradientTransform="matrix(.995 -.105 .105 .995 -26.069 20.055)" gradientUnits="userSpaceOnUse" x1="215.435" x2="162.906" xlink:href="#lg4" y1="233.935" y2="112.462"/><linearGradient id="SVGID_17_" gradientTransform="matrix(.995 -.105 .105 .995 -26.069 20.055)" gradientUnits="userSpaceOnUse" x1="269.157" x2="615.636" xlink:href="#lg3" y1="254.728" y2="93.18"/><linearGradient id="SVGID_18_" gradientUnits="userSpaceOnUse" x1="239.1" x2="147.547" xlink:href="#lg3" y1="239.977" y2="250.95"/><linearGradient id="SVGID_19_" gradientTransform="matrix(.978 -.208 .208 .978 -53.65 3.097)" gradientUnits="userSpaceOnUse" x1="89.051" x2="339.847" xlink:href="#lg1" y1="266.498" y2="517.294"/><linearGradient id="SVGID_20_" gradientTransform="matrix(.978 -.208 .208 .978 -53.65 3.097)" gradientUnits="userSpaceOnUse" x1="116.003" x2="-52.257" xlink:href="#lg2" y1="293.119" y2="172.659"/><linearGradient id="SVGID_21_" gradientTransform="matrix(.978 -.208 .208 .978 -53.65 3.097)" gradientUnits="userSpaceOnUse" x1="168.491" x2="514.987" xlink:href="#lg3" y1="296.557" y2="135.001"/><linearGradient id="SVGID_22_" gradientTransform="matrix(.978 -.208 .208 .978 -53.65 3.097)" gradientUnits="userSpaceOnUse" x1="89.116" x2="133.556" xlink:href="#lg5" y1="273.716" y2="326.17"/><linearGradient id="SVGID_23_" gradientTransform="matrix(.978 -.208 .208 .978 -53.65 3.097)" gradientUnits="userSpaceOnUse" x1="114.463" x2="70.368" xlink:href="#lg6" y1="305.999" y2="191.104"/><path d="m444.173 409.73-152.27-32.366c-6.611-1.405-10.831-7.903-9.426-14.514l51.044-240.141c1.405-6.611 7.903-10.831 14.514-9.425l152.27 32.366c6.611 1.405 10.831 7.903 9.426 14.514l-51.043 240.141c-1.407 6.61-7.905 10.83-14.515 9.425z" fill="url(#SVGID_1_)"/><path d="m341.361 178.126c.028-.13.121-.359.282-.688l20.521-37.085c.576-1.009 1.545-1.676 2.905-1.999 1.359-.322 2.841-.313 4.445.027 1.603.341 2.961.935 4.071 1.783 1.111.848 1.724 1.851 1.841 3.007l3.727 42.239c.013.366.006.613-.022.743-.24 1.128-1.152 1.953-2.735 2.476-1.584.524-3.134.625-4.651.302-1.864-.396-2.836-1.259-2.915-2.59l-.483-8.596-13.717-2.916-3.938 7.656c-.615 1.184-1.853 1.577-3.716 1.181-1.518-.323-2.893-1.045-4.126-2.168-1.232-1.12-1.729-2.245-1.489-3.372zm17.008-10.653 9.491 2.017-1.042-18.431z" fill="#9b62cd"/><path d="m355.231 124.365c-6.611-1.405-13.109 2.815-14.514 9.425l-51.043 240.141c-.186.876-.267 1.75-.263 2.611.785.354 1.616.635 2.492.821l152.27 32.366c6.611 1.405 13.109-2.815 14.514-9.426l51.043-240.14c.186-.877.267-1.75.263-2.611-.785-.354-1.616-.635-2.492-.822z" fill="url(#SVGID_2_)"/><path d="m500.305 145.65-3.301-.702-50.342 236.839c-1.405 6.611-7.903 10.831-14.514 9.426l-148.969-31.664-.702 3.301c-1.405 6.611 2.815 13.109 9.425 14.514l152.27 32.366c6.611 1.405 13.109-2.815 14.514-9.426l51.043-240.14c1.406-6.611-2.814-13.109-9.424-14.514z" fill="url(#SVGID_3_)"/><path d="m401.134 208.827-42.819 40.38c-2.222 2.095-2.913 5.348-1.736 8.166l22.693 54.305c1.977 4.73 8.072 6.026 11.802 2.508l42.819-40.38c2.222-2.095 2.913-5.348 1.736-8.165l-22.693-54.305c-1.977-4.73-8.073-6.026-11.802-2.509z" fill="url(#SVGID_4_)"/><path d="m415.198 216.75c-1.64-3.924-6.617-5.452-9.958-2.821-.174.137-.343.283-.508.439l-39.845 37.576c-4.011 3.783-5.259 9.654-3.133 14.741l20.147 48.213c2.711 1.846 6.532 1.779 9.173-.712l42.819-40.38c2.222-2.095 2.913-5.348 1.736-8.166z" fill="url(#SVGID_5_)"/><path d="m402.508 124.862-54.473-11.579c-6.611-1.405-13.109 2.815-14.514 9.425l-51.044 240.142c-1.405 6.611 2.815 13.109 9.425 14.514l152.27 32.366c6.611 1.405 13.109-2.815 14.514-9.426l38.436-180.827z" fill="url(#SVGID_6_)"/><path d="m364.011 384.842-154.819-16.272c-6.721-.706-11.597-6.728-10.891-13.449l25.662-244.161c.706-6.721 6.728-11.597 13.449-10.891l154.819 16.272c6.721.706 11.597 6.728 10.891 13.449l-25.662 244.161c-.706 6.722-6.728 11.598-13.449 10.891z" fill="url(#SVGID_7_)"/><path d="m237.553 165.254c.014-.132.083-.369.208-.713l16.532-39.027c.468-1.064 1.362-1.828 2.68-2.291s2.792-.609 4.423-.437c1.629.171 3.042.621 4.235 1.347 1.193.727 1.908 1.66 2.145 2.798l8.122 41.618c.051.363.07.609.056.741-.12 1.146-.941 2.063-2.461 2.749-1.52.687-3.052.949-4.594.787-1.895-.199-2.952-.956-3.169-2.271l-1.379-8.498-13.946-1.466-3.116 8.026c-.488 1.241-1.678 1.761-3.572 1.562-1.543-.162-2.986-.737-4.33-1.725-1.343-.987-1.955-2.054-1.834-3.2zm15.802-12.373 9.65 1.014-2.963-18.221z" fill="#9b62cd"/><path d="m245.728 110.338c-6.721-.706-12.743 4.17-13.449 10.891l-25.662 244.161c-.094.891-.083 1.768.011 2.624.818.27 1.674.463 2.565.556l154.819 16.272c6.721.706 12.743-4.169 13.449-10.891l25.662-244.16c.094-.891.083-1.768-.011-2.624-.818-.27-1.673-.463-2.565-.556z" fill="url(#SVGID_8_)"/><path d="m392.231 116.342-3.357-.353-25.31 240.804c-.706 6.721-6.728 11.598-13.449 10.891l-151.462-15.919-.353 3.356c-.706 6.721 4.17 12.743 10.891 13.449l154.819 16.272c6.721.706 12.743-4.169 13.449-10.891l25.662-244.16c.708-6.722-4.168-12.743-10.89-13.449z" fill="url(#SVGID_9_)"/><path d="m332.554 226.148c.539-1.797.926-3.667 1.13-5.601 1.761-16.753-10.393-31.761-27.146-33.522s-31.761 10.393-33.522 27.146c-.203 1.934-.213 3.843-.06 5.713-15.475-.073-28.79 11.595-30.442 27.314-1.761 16.753 10.393 31.761 27.146 33.522 7.271.764 14.212-1.095 19.885-4.812-2.374 5.884-5.626 10.855-9.268 14.195-1.689 1.549-1.533 6.086.215 6.27l28.787 3.026c1.749.184 2.844-4.222 1.514-6.088-2.914-4.089-5.229-9.761-6.439-16.148 4.81 4.998 11.337 8.395 18.775 9.177 16.753 1.761 31.761-10.393 33.522-27.146 1.653-15.718-8.945-29.9-24.097-33.046z" fill="url(#SVGID_10_)"/><path d="m356.651 259.19c-1.761 16.758-16.769 28.91-33.517 27.15-7.444-.782-13.966-4.179-18.776-9.181 1.21 6.389 3.518 12.064 6.436 16.153 1.328 1.867.229 6.267-1.517 6.083l-28.782-3.025c-1.746-.184-1.907-4.716-.219-6.266 1.538-1.411 3.009-3.109 4.361-5.051 1.871-2.65 3.537-5.746 4.907-9.142-5.668 3.717-12.617 5.573-19.889 4.808-.072-.008-.144-.015-.216-.023-13.928-1.562-24.152-14.192-22.788-28.14.007-.075.015-.15.023-.226 1.652-15.718 14.968-27.382 30.436-27.31-.151-1.868-.143-3.778.06-5.715 1.76-16.748 16.769-28.91 33.526-27.149.464.049.924.108 1.38.176 12.991 1.96 22.51 13.715 21.724 26.829-.027.46-.065.921-.114 1.384-.204 1.937-.593 3.807-1.129 5.603 1.727.365 3.402.869 4.994 1.509 6.004 2.358 11.014 6.561 14.406 11.838 3.645 5.633 5.45 12.509 4.694 19.695z" fill="url(#SVGID_11_)"/><path d="m209.192 368.57 154.819 16.272c6.721.706 12.743-4.17 13.449-10.891l16.655-158.462-110.127-110.127c-.1-.147-.208-.288-.314-.43l-28.678-3.014-28.663 3.013c-1.275 1.706-2.132 3.758-2.37 6.03l-25.662 244.161c-.706 6.72 4.17 12.742 10.891 13.448z" fill="url(#SVGID_12_)"/><path d="m300.811 368.569-154.818 16.274c-6.721.707-12.743-4.169-13.449-10.891l-25.666-244.16c-.707-6.721 4.169-12.743 10.891-13.449l154.818-16.274c6.721-.706 12.743 4.169 13.449 10.891l25.666 244.16c.707 6.721-4.169 12.742-10.891 13.449z" fill="url(#SVGID_13_)"/><path d="m131.459 180.074c-.014-.132.004-.378.056-.741l8.056-41.611c.236-1.138.952-2.071 2.145-2.798s2.605-1.176 4.236-1.347c1.629-.171 3.105-.026 4.423.437s2.211 1.227 2.68 2.291l16.598 39.02c.125.344.195.581.209.713.12 1.146-.492 2.213-1.836 3.2-1.344.988-2.788 1.563-4.329 1.725-1.895.199-3.086-.321-3.572-1.562l-3.116-8.026-13.946 1.466-1.379 8.498c-.219 1.316-1.275 2.072-3.169 2.271-1.543.162-3.074-.1-4.594-.787-1.521-.687-2.341-1.603-2.462-2.749zm12.884-15.388 9.65-1.014-6.687-17.207z" fill="#9b62cd"/><path d="m128.037 124.658c-6.721.707-11.597 6.728-10.891 13.449l25.666 244.16c.094.891.287 1.747.556 2.565.856.094 1.733.105 2.624.011l154.819-16.274c6.721-.706 11.597-6.728 10.891-13.449l-25.666-244.16c-.094-.891-.287-1.747-.556-2.565-.856-.094-1.733-.105-2.624-.011z" fill="url(#SVGID_14_)"/><path d="m220.787 294.72 43.379-52.754c12.356-15.027 10.191-37.224-4.835-49.581-15.027-12.356-37.225-10.191-49.581 4.835l-4.747 5.773-5.773-4.747c-15.027-12.356-37.225-10.191-49.581 4.835-12.356 15.026-10.191 37.224 4.835 49.58l52.754 43.379c4.107 3.378 10.173 2.786 13.549-1.32z" fill="url(#SVGID_15_)"/><path d="m159.659 256.853 48.373 39.777c4.062 2.7 9.59 1.94 12.755-1.909l43.379-52.754c11.71-14.241 10.369-34.919-2.594-47.56-14.862-9.86-35.072-7.071-46.647 7.005l-4.747 5.773-5.143-4.229-.032.039-2.074-1.705c-14.973-11.054-36.148-8.559-48.105 5.983-12.356 15.026-10.191 37.224 4.835 49.58z" fill="url(#SVGID_16_)"/><path d="m272.587 100.069-3.357.353 25.313 240.804c.707 6.721-4.169 12.743-10.891 13.449l-151.462 15.922.353 3.356c.707 6.721 6.728 11.597 13.449 10.891l154.819-16.274c6.721-.706 11.597-6.728 10.891-13.449l-25.666-244.16c-.706-6.723-6.728-11.599-13.449-10.892z" fill="url(#SVGID_17_)"/><path d="m161.965 113.284-54.606 11.607c-.478 1.539-.66 3.197-.481 4.902l25.666 244.16c.707 6.721 6.728 11.597 13.449 10.891l154.819-16.274c6.721-.707 11.597-6.728 10.891-13.449l-11.645-110.778-124.672-124.673c-2.459-4.797-7.895-7.561-13.421-6.386z" fill="url(#SVGID_18_)"/><path d="m218.097 377.364-152.27 32.366c-6.611 1.405-13.109-2.815-14.514-9.426l-51.043-240.14c-1.405-6.611 2.815-13.109 9.425-14.514l152.27-32.366c6.611-1.405 13.109 2.815 14.514 9.425l51.043 240.141c1.406 6.611-2.814 13.109-9.425 14.514z" fill="url(#SVGID_19_)"/><path d="m29.972 207.601c-.028-.13-.035-.377-.022-.743l3.663-42.226c.116-1.156.73-2.16 1.841-3.007 1.111-.848 2.468-1.442 4.072-1.783 1.603-.341 3.085-.35 4.444-.027 1.36.323 2.327.99 2.905 1.999l20.585 37.071c.16.329.255.557.282.687.24 1.128-.258 2.253-1.491 3.375-1.234 1.123-2.609 1.846-4.125 2.168-1.864.396-3.103.003-3.716-1.18l-3.938-7.656-13.717 2.916-.483 8.596c-.08 1.331-1.052 2.194-2.915 2.59-1.518.323-3.068.222-4.651-.302-1.583-.525-2.494-1.351-2.734-2.478zm11.205-16.651 9.491-2.017-8.449-16.414z" fill="#9b62cd"/><path d="m20.777 152.846c-6.611 1.405-10.831 7.903-9.426 14.514l51.044 240.141c.186.877.468 1.707.821 2.492.861.004 1.734-.077 2.611-.263l152.27-32.366c6.611-1.405 10.831-7.903 9.425-14.514l-51.043-240.14c-.186-.877-.468-1.708-.821-2.493-.861-.004-1.735.077-2.611.263z" fill="url(#SVGID_20_)"/><path d="m161.965 113.284-3.301.702 50.342 236.839c1.405 6.611-2.815 13.109-9.425 14.514l-148.969 31.664.702 3.301c1.405 6.611 7.903 10.831 14.514 9.425l152.27-32.366c6.611-1.405 10.831-7.903 9.425-14.514l-51.043-240.14c-1.406-6.61-7.904-10.83-14.515-9.425z" fill="url(#SVGID_21_)"/><path d="m158.67 240.474-50.49-32.251c-3.93-2.51-9.151-1.36-11.661 2.57l-32.251 50.49c-9.187 14.382-4.975 33.487 9.406 42.674 13.014 8.313 29.894 5.654 39.795-5.583-.575 5.691-2.06 10.828-4.284 14.763-1.128 1.995.423 6.262 2.143 5.897l28.313-6.018c1.72-.365 1.401-4.894-.441-6.258-3.806-2.819-7.537-7.146-10.571-12.411 13.898 6.716 30.933 2.132 39.448-11.198 9.186-14.383 4.975-33.488-9.407-42.675z" fill="url(#SVGID_22_)"/><path d="m172.259 260.089c1.628 7.659.367 15.942-4.182 23.06-8.518 13.328-25.555 17.91-39.45 11.201 1.52 2.63 3.207 5.028 4.996 7.12s3.679 3.878 5.578 5.289c1.84 1.365 2.154 5.889.437 6.254l-28.308 6.017c-1.718.365-3.271-3.896-2.145-5.891.835-1.472 1.566-3.109 2.188-4.889l-.002-.009c1.028-2.965 1.74-6.305 2.102-9.865-4.48 5.092-10.404 8.421-16.74 9.768-6.702 1.424-13.874.634-20.337-2.633-.021-.005-.03-.003-.023-.015-12.063-9.767-15.107-27.23-6.562-40.612l32.246-50.49c2.51-3.928 7.728-5.086 11.666-2.578l46.383 29.636c6.45 4.633 10.607 11.362 12.153 18.637z" fill="url(#SVGID_23_)"/></svg>